<mxfile host="app.diagrams.net" modified="2021-08-18T03:03:23.404Z" agent="5.0 (Windows NT 10.0; Win64; x64) AppleWebKit/537.36 (KHTML, like Gecko) Chrome/91.0.4472.164 Safari/537.36" etag="1xEJ8UgtaSBzb4tSMBVc" version="14.9.7" type="github">
  <diagram id="gBzq73jGnkn_bVgxqYf4" name="Page-1">
    <mxGraphModel dx="782" dy="468" grid="0" gridSize="10" guides="1" tooltips="1" connect="1" arrows="1" fold="1" page="1" pageScale="1" pageWidth="1169" pageHeight="827" math="0" shadow="0">
      <root>
        <mxCell id="0" />
        <mxCell id="1" parent="0" />
        <mxCell id="no_DWMfRoMb73RWZvfay-9" value="" style="edgeStyle=orthogonalEdgeStyle;rounded=0;orthogonalLoop=1;jettySize=auto;html=1;" parent="1" source="no_DWMfRoMb73RWZvfay-4" target="no_DWMfRoMb73RWZvfay-5" edge="1">
          <mxGeometry relative="1" as="geometry" />
        </mxCell>
        <mxCell id="no_DWMfRoMb73RWZvfay-4" value="Web应用" style="rounded=1;whiteSpace=wrap;html=1;" parent="1" vertex="1">
          <mxGeometry x="110" y="190" width="120" height="60" as="geometry" />
        </mxCell>
        <mxCell id="no_DWMfRoMb73RWZvfay-7" value="Replication" style="edgeStyle=orthogonalEdgeStyle;rounded=0;orthogonalLoop=1;jettySize=auto;html=1;" parent="1" source="no_DWMfRoMb73RWZvfay-5" target="no_DWMfRoMb73RWZvfay-6" edge="1">
          <mxGeometry relative="1" as="geometry" />
        </mxCell>
        <mxCell id="no_DWMfRoMb73RWZvfay-5" value="Primary&lt;br&gt;&lt;span style=&quot;font-size: 10pt&quot;&gt;172.16.3.1&lt;/span&gt;" style="rounded=1;whiteSpace=wrap;html=1;fillColor=#0050ef;strokeColor=#001DBC;fontColor=#FFFFFF;" parent="1" vertex="1">
          <mxGeometry x="320" y="190" width="120" height="60" as="geometry" />
        </mxCell>
        <mxCell id="no_DWMfRoMb73RWZvfay-6" value="Secondary&lt;br&gt;&lt;span style=&quot;font-size: 13.3333px&quot;&gt;172.16.3.2&lt;/span&gt;" style="rounded=1;whiteSpace=wrap;html=1;fillColor=#e51400;strokeColor=#B20000;fontColor=#FFFFFF;" parent="1" vertex="1">
          <mxGeometry x="540" y="190" width="120" height="60" as="geometry" />
        </mxCell>
      </root>
    </mxGraphModel>
  </diagram>
</mxfile>
